# Max2Obj Version 4.0 Mar 10th, 2001
#
# object Object05 to come ...
#
v  -47.161423 -14.114452 -0.000007
v  -52.684242 -7.549341 -0.000007
v  -51.312702 -7.393990 -0.000007
v  -11.113503 -6.310120 -0.000002
v  -23.118912 -8.459426 -0.000003
v  -23.161253 4.254670 -0.000003
v  -11.457520 4.922300 -0.000001
v  -10.414307 4.372755 -0.000001
v  -17.484566 5.896076 -0.000002
v  -17.050531 5.946941 -0.000002
v  -20.288567 5.213599 -0.000002
v  -19.652372 5.386976 -0.000002
v  -14.064083 5.825551 -0.000002
v  -12.894173 5.519740 -0.000001
v  -21.846586 4.692638 -0.000003
v  -30.557344 4.239706 -0.000004
v  -29.257992 3.868963 -0.000004
v  -28.146484 3.651412 -0.000004
v  -26.679180 3.597621 -0.000003
v  -34.018753 -6.848709 -0.000005
v  -34.439178 5.564724 -0.000004
v  -32.947697 5.040768 -0.000004
v  -36.304653 6.052956 -0.000004
v  -35.433399 5.837863 -0.000004
v  -38.398941 6.078475 -0.000005
v  -37.454536 6.198101 -0.000005
v  -40.773716 4.278404 -0.000005
v  -39.567585 5.473958 -0.000005
v  -45.937256 -3.614203 -0.000006
v  -45.344532 -2.773482 -0.000006
v  -43.197792 0.840221 -0.000006
v  -41.852615 2.845883 -0.000005
v  -49.059677 -6.311575 -0.000007
v  -47.750290 -5.415888 -0.000006
v  -54.902767 -7.505186 -0.000008
v  -57.628876 -6.971178 -0.000008
v  -57.630802 -17.356607 -0.000008
v  -9.434502 3.811823 -0.000001
v  -8.655502 3.347468 -0.000001
v  -0.000019 -10.398678 -0.000000
v  -6.557579 2.079138 -0.000001
v  -3.597515 0.620538 -0.000000
v  -2.459759 0.264287 -0.000000
v  -5.559006 1.526447 -0.000001
v  -0.885120 -0.012227 -0.000000
v  -0.453030 -0.020684 -0.000000
v  -31.941673 4.714357 -0.000004
v  -0.000015 -0.000052 0.000000
v  -4.643887 1.068465 -0.000001
v  -7.762329 2.808713 -0.000001
v  -7.310345 2.532905 -0.000001
v  -15.740566 6.046387 -0.000002
v  -14.954941 5.999915 -0.000002
v  -16.569141 5.996045 -0.000002
v  -16.163609 6.030386 -0.000002
v  -18.859407 5.611649 -0.000002
v  -18.252840 5.757140 -0.000002
v  -20.991894 4.979873 -0.000003
v  -25.347034 3.726240 -0.000003
v  -44.105549 -0.699099 -0.000006
v  -44.685471 -1.698738 -0.000006
v  -46.623020 -4.414967 -0.000006
v  -50.342125 -7.006549 -0.000007
v  -1.851475 0.107068 -0.000000
v  -1.361534 0.026612 -0.000000
# 65 vertices

vt  0.202192 0.010855 0.000000
vt  0.226389 0.996590 0.000000
vt  0.223287 0.996590 0.000000
vt  0.041988 0.010855 0.000000
vt  0.103057 0.010855 0.000000
vt  0.090614 0.996590 0.000000
vt  0.041659 0.996590 0.000000
vt  0.039053 0.996590 0.000000
vt  0.059403 0.996590 0.000000
vt  0.057791 0.996590 0.000000
vt  0.075225 0.996590 0.000000
vt  0.070789 0.996590 0.000000
vt  0.050161 0.996590 0.000000
vt  0.045794 0.996590 0.000000
vt  0.082254 0.996590 0.000000
vt  0.133141 0.996590 0.000000
vt  0.126628 0.996590 0.000000
vt  0.120949 0.996590 0.000000
vt  0.111978 0.996590 0.000000
vt  0.144108 0.010855 0.000000
vt  0.146968 0.996590 0.000000
vt  0.142981 0.996590 0.000000
vt  0.154460 0.996590 0.000000
vt  0.150181 0.996590 0.000000
vt  0.168635 0.996590 0.000000
vt  0.161591 0.996590 0.000000
vt  0.183000 0.996590 0.000000
vt  0.176065 0.996590 0.000000
vt  0.208852 0.996590 0.000000
vt  0.204585 0.996590 0.000000
vt  0.194787 0.996590 0.000000
vt  0.188939 0.996590 0.000000
vt  0.217766 0.996590 0.000000
vt  0.214465 0.996590 0.000000
vt  0.233216 0.996590 0.000000
vt  0.242075 0.996590 0.000000
vt  0.237481 0.010855 0.000000
vt  0.035745 0.996590 0.000000
vt  0.034386 0.996590 0.000000
vt  0.006545 0.010855 0.000000
vt  0.028216 0.996590 0.000000
vt  0.018770 0.996590 0.000000
vt  0.015437 0.996590 0.000000
vt  0.025012 0.996590 0.000000
vt  0.011025 0.996590 0.000000
vt  0.009887 0.996590 0.000000
vt  0.140076 0.996590 0.000000
vt  0.006545 0.996590 0.000000
vt  0.022915 0.996590 0.000000
vt  0.032805 0.996590 0.000000
vt  0.030831 0.996590 0.000000
vt  0.054100 0.996590 0.000000
vt  0.052348 0.996590 0.000000
vt  0.056165 0.996590 0.000000
vt  0.055251 0.996590 0.000000
vt  0.066167 0.996590 0.000000
vt  0.063244 0.996590 0.000000
vt  0.078447 0.996590 0.000000
vt  0.103831 0.996590 0.000000
vt  0.199724 0.996590 0.000000
vt  0.202493 0.996590 0.000000
vt  0.212131 0.996590 0.000000
vt  0.221184 0.996590 0.000000
vt  0.013056 0.996590 0.000000
vt  0.011914 0.996590 0.000000
# 65 texture vertices

vn  -0.000000 0.000000 -0.015141
vn  -0.000000 -0.000000 -0.015141
vn  -0.000000 0.000000 -0.015141
vn  -0.000000 0.000000 -0.015141
vn  -0.000000 -0.000000 -0.015141
vn  -0.000000 -0.000000 -0.015141
vn  -0.000000 0.000000 -0.015141
vn  -0.000000 -0.000000 -0.015141
vn  -0.000000 0.000000 -0.015141
vn  -0.000000 0.000000 -0.015141
vn  -0.000000 -0.000000 -0.015141
vn  -0.000000 0.000000 -0.015141
vn  -0.000000 0.000000 -0.015141
vn  -0.000000 0.000000 -0.015141
vn  -0.000000 0.000000 -0.015141
vn  -0.000000 0.000000 -0.015141
vn  -0.000000 0.000000 -0.015141
vn  -0.000000 -0.000000 -0.015141
vn  -0.000000 -0.000000 -0.015141
vn  -0.000000 0.000000 -0.015141
vn  -0.000000 0.000000 -0.015141
vn  -0.000000 0.000000 -0.015141
vn  -0.000000 0.000000 -0.015141
vn  -0.000000 0.000000 -0.015141
vn  -0.000000 0.000000 -0.015141
vn  -0.000000 0.000000 -0.015141
vn  -0.000000 0.000000 -0.015141
vn  -0.000000 -0.000000 -0.015141
vn  -0.000000 0.000000 -0.015141
vn  -0.000000 0.000000 -0.015141
vn  -0.000000 -0.000000 -0.015141
vn  -0.000000 0.000000 -0.015141
vn  -0.000000 0.000000 -0.015141
vn  -0.000000 0.000000 -0.015141
vn  -0.000000 0.000000 -0.015141
vn  -0.000000 0.000000 -0.015141
vn  -0.000000 -0.000000 -0.015141
vn  -0.000000 0.000000 -0.015141
vn  -0.000000 0.000000 -0.015141
vn  -0.000000 0.000000 -0.015141
vn  -0.000000 0.000000 -0.015141
vn  -0.000000 0.000000 -0.015141
vn  -0.000000 -0.000000 -0.015141
vn  -0.000000 0.000000 -0.015141
vn  -0.000000 0.000000 -0.015141
vn  -0.000000 0.000000 -0.015141
vn  -0.000000 -0.000000 -0.015141
vn  -0.000000 0.000000 -0.015141
vn  -0.000000 0.000000 -0.015141
vn  -0.000000 -0.000000 -0.015141
vn  -0.000000 -0.000000 -0.015141
vn  -0.000000 0.000000 -0.015141
vn  -0.000000 0.000000 -0.015141
vn  -0.000000 -0.000000 -0.015141
vn  -0.000000 0.000000 -0.015141
vn  -0.000000 0.000000 -0.015141
vn  -0.000000 -0.000000 -0.015141
vn  -0.000000 0.000000 -0.015141
vn  -0.000000 0.000000 -0.015141
vn  -0.000000 -0.000000 -0.015141
vn  -0.000000 0.000000 -0.015141
vn  -0.000000 0.000000 -0.015141
vn  -0.000000 0.000000 -0.015141
vn  -0.000000 0.000000 -0.015141
vn  -0.000000 0.000000 -0.015141
# 65 vertex normals

g Object05
s 1
f 1/1/1 2/2/2 3/3/3
f 4/4/4 5/5/5 6/6/6
f 4/4/4 7/7/7 8/8/8
f 9/9/9 10/10/10 4/4/4
f 11/11/11 12/12/12 4/4/4
f 13/13/13 14/14/14 4/4/4
f 4/4/4 6/6/6 15/15/15
f 16/16/16 17/17/17 5/5/5
f 18/18/18 19/19/19 5/5/5
f 20/20/20 21/21/21 22/22/22
f 23/23/23 24/24/24 20/20/20
f 20/20/20 25/25/25 26/26/26
f 20/20/20 27/27/27 28/28/28
f 29/29/29 30/30/30 1/1/1
f 31/31/31 32/32/32 20/20/20
f 33/33/33 34/34/34 1/1/1
f 35/35/35 1/1/1 36/36/36
f 35/35/35 2/2/2 1/1/1
f 1/1/1 37/37/37 36/36/36
f 38/38/38 39/39/39 4/4/4
f 40/40/40 4/4/4 41/41/41
f 40/40/40 42/42/42 43/43/43
f 40/40/40 41/41/41 44/44/44
f 40/40/40 45/45/45 46/46/46
f 47/47/47 5/5/5 20/20/20
f 20/20/20 1/1/1 31/31/31
f 46/46/46 48/48/48 40/40/40
f 49/49/49 42/42/42 40/40/40
f 50/50/50 51/51/51 4/4/4
f 8/8/8 38/38/38 4/4/4
f 44/44/44 49/49/49 40/40/40
f 14/14/14 7/7/7 4/4/4
f 52/52/52 53/53/53 4/4/4
f 54/54/54 55/55/55 4/4/4
f 56/56/56 57/57/57 4/4/4
f 15/15/15 58/58/58 4/4/4
f 59/59/59 6/6/6 5/5/5
f 5/5/5 19/19/19 59/59/59
f 17/17/17 18/18/18 5/5/5
f 5/5/5 47/47/47 16/16/16
f 22/22/22 47/47/47 20/20/20
f 24/24/24 21/21/21 20/20/20
f 26/26/26 23/23/23 20/20/20
f 28/28/28 25/25/25 20/20/20
f 32/32/32 27/27/27 20/20/20
f 60/60/60 31/31/31 1/1/1
f 30/30/30 61/61/61 1/1/1
f 62/62/62 29/29/29 1/1/1
f 34/34/34 62/62/62 1/1/1
f 63/63/63 33/33/33 1/1/1
f 3/3/3 63/63/63 1/1/1
f 43/43/43 64/64/64 40/40/40
f 40/40/40 64/64/64 65/65/65
f 51/51/51 41/41/41 4/4/4
f 39/39/39 50/50/50 4/4/4
f 53/53/53 13/13/13 4/4/4
f 55/55/55 52/52/52 4/4/4
f 10/10/10 54/54/54 4/4/4
f 57/57/57 9/9/9 4/4/4
f 12/12/12 56/56/56 4/4/4
f 58/58/58 11/11/11 4/4/4
f 61/61/61 60/60/60 1/1/1
f 65/65/65 45/45/45 40/40/40
# 63 faces

g
