# Max2Obj Version 4.0 Mar 10th, 2001
#
# object Object06 to come ...
#
v  -49.862438 -16.031128 -0.000000
v  -54.747341 -7.289017 -0.000000
v  -53.322590 -7.167071 -0.000000
v  -10.862217 -9.403019 -0.000000
v  -24.111404 -15.383356 -0.000000
v  -22.274570 -4.284965 0.000000
v  -7.827991 5.142048 0.000000
v  -7.031670 4.600494 0.000000
v  -13.551075 4.493947 0.000000
v  -13.058960 4.804302 0.000000
v  -17.806988 0.528080 0.000000
v  -16.725384 1.633895 0.000000
v  -10.147579 5.769701 0.000000
v  -9.079147 5.661556 0.000000
v  -20.365278 -2.478757 0.000000
v  -29.092432 -2.983202 0.000000
v  -27.156303 -4.792939 0.000000
v  -25.808077 -5.438224 0.000000
v  -24.581762 -5.498667 0.000000
v  -38.461472 -11.820057 -0.000000
v  -35.737400 4.141363 0.000000
v  -34.097511 2.680868 0.000000
v  -37.702980 5.385987 0.000000
v  -36.784134 4.866047 0.000000
v  -39.931290 5.912466 0.000000
v  -38.925541 5.847261 0.000000
v  -42.442280 4.266456 0.000000
v  -41.171734 5.439477 0.000000
v  -47.759335 -3.761847 0.000000
v  -47.143467 -2.952377 0.000000
v  -44.934086 0.663167 0.000000
v  -43.558678 2.759847 0.000000
v  -50.982162 -6.210326 -0.000000
v  -49.623459 -5.415044 -0.000000
v  -57.051929 -7.227155 -0.000000
v  -59.883797 -6.712985 -0.000000
v  -59.885799 -16.710558 -0.000000
v  -6.360653 4.027770 0.000000
v  -5.875782 3.547272 0.000000
v  -0.019253 -10.012495 -0.000000
v  -4.699177 2.221705 0.000000
v  -2.948280 0.679357 0.000000
v  -2.138134 0.298078 0.000000
v  -4.145828 1.639007 0.000000
v  -0.835228 -0.002663 0.000000
v  -0.436249 -0.016170 0.000000
v  -32.931767 1.590173 0.000000
v  0.000130 -0.000081 0.000000
v  -3.612030 1.154575 0.000000
v  -5.359276 2.985851 0.000000
v  -5.109020 2.697450 0.000000
v  -11.730717 5.492437 0.000000
v  -10.972569 5.713352 0.000000
v  -12.557922 5.095776 0.000000
v  -12.149326 5.308020 0.000000
v  -15.422249 2.936807 0.000000
v  -14.532185 3.746158 0.000000
v  -18.930788 -0.733284 0.000000
v  -23.290434 -5.036059 0.000000
v  -45.862328 -0.901438 0.000000
v  -46.459053 -1.897330 0.000000
v  -48.464363 -4.510753 -0.000000
v  -52.314362 -6.825353 -0.000000
v  -1.663342 0.130512 0.000000
v  -1.254757 0.042642 0.000000
# 65 vertices

vt  0.202192 0.010855 0.000000
vt  0.226389 0.996590 0.000000
vt  0.223287 0.996590 0.000000
vt  0.041988 0.010855 0.000000
vt  0.103057 0.010855 0.000000
vt  0.090614 0.996590 0.000000
vt  0.041659 0.996590 0.000000
vt  0.039053 0.996590 0.000000
vt  0.059403 0.996590 0.000000
vt  0.057791 0.996590 0.000000
vt  0.075225 0.996590 0.000000
vt  0.070789 0.996590 0.000000
vt  0.050161 0.996590 0.000000
vt  0.045794 0.996590 0.000000
vt  0.082254 0.996590 0.000000
vt  0.133141 0.996590 0.000000
vt  0.126628 0.996590 0.000000
vt  0.120949 0.996590 0.000000
vt  0.111978 0.996590 0.000000
vt  0.144108 0.010855 0.000000
vt  0.146968 0.996590 0.000000
vt  0.142981 0.996590 0.000000
vt  0.154460 0.996590 0.000000
vt  0.150181 0.996590 0.000000
vt  0.168635 0.996590 0.000000
vt  0.161591 0.996590 0.000000
vt  0.183000 0.996590 0.000000
vt  0.176065 0.996590 0.000000
vt  0.208852 0.996590 0.000000
vt  0.204585 0.996590 0.000000
vt  0.194787 0.996590 0.000000
vt  0.188939 0.996590 0.000000
vt  0.217766 0.996590 0.000000
vt  0.214465 0.996590 0.000000
vt  0.233216 0.996590 0.000000
vt  0.242075 0.996590 0.000000
vt  0.237481 0.010855 0.000000
vt  0.035745 0.996590 0.000000
vt  0.034386 0.996590 0.000000
vt  0.006545 0.010855 0.000000
vt  0.028216 0.996590 0.000000
vt  0.018770 0.996590 0.000000
vt  0.015437 0.996590 0.000000
vt  0.025012 0.996590 0.000000
vt  0.011025 0.996590 0.000000
vt  0.009887 0.996590 0.000000
vt  0.140076 0.996590 0.000000
vt  0.006545 0.996590 0.000000
vt  0.022915 0.996590 0.000000
vt  0.032805 0.996590 0.000000
vt  0.030831 0.996590 0.000000
vt  0.054100 0.996590 0.000000
vt  0.052348 0.996590 0.000000
vt  0.056165 0.996590 0.000000
vt  0.055251 0.996590 0.000000
vt  0.066167 0.996590 0.000000
vt  0.063244 0.996590 0.000000
vt  0.078447 0.996590 0.000000
vt  0.103831 0.996590 0.000000
vt  0.199724 0.996590 0.000000
vt  0.202493 0.996590 0.000000
vt  0.212131 0.996590 0.000000
vt  0.221184 0.996590 0.000000
vt  0.013056 0.996590 0.000000
vt  0.011914 0.996590 0.000000
# 65 texture vertices

vn  -0.000000 0.000000 -0.015736
vn  -0.000000 0.000000 -0.015736
vn  0.000000 0.000000 -0.015736
vn  -0.000000 0.000000 -0.015736
vn  0.000000 0.000000 -0.015736
vn  -0.000000 0.000000 -0.015736
vn  -0.000000 0.000000 -0.015736
vn  0.000000 0.000000 -0.015736
vn  0.000000 0.000000 -0.015736
vn  -0.000000 0.000000 -0.015736
vn  -0.000000 0.000000 -0.015736
vn  0.000000 0.000000 -0.015736
vn  -0.000000 0.000000 -0.015736
vn  -0.000000 0.000000 -0.015736
vn  0.000000 0.000000 -0.015736
vn  0.000000 0.000000 -0.015736
vn  0.000000 0.000000 -0.015736
vn  -0.000000 0.000000 -0.015736
vn  -0.000000 0.000000 -0.015736
vn  -0.000000 0.000000 -0.015736
vn  0.000000 0.000000 -0.015736
vn  0.000000 0.000000 -0.015736
vn  -0.000000 0.000000 -0.015736
vn  0.000000 0.000000 -0.015736
vn  -0.000000 0.000000 -0.015736
vn  0.000000 0.000000 -0.015736
vn  -0.000000 0.000000 -0.015736
vn  -0.000000 0.000000 -0.015736
vn  -0.000000 0.000000 -0.015736
vn  -0.000000 0.000000 -0.015736
vn  0.000000 0.000000 -0.015736
vn  -0.000000 0.000000 -0.015736
vn  -0.000000 0.000000 -0.015736
vn  -0.000000 0.000000 -0.015736
vn  0.000000 0.000000 -0.015736
vn  0.000000 0.000000 -0.015736
vn  -0.000000 0.000000 -0.015736
vn  -0.000000 0.000000 -0.015736
vn  -0.000000 0.000000 -0.015736
vn  -0.000000 0.000000 -0.015736
vn  -0.000000 0.000000 -0.015736
vn  -0.000000 0.000000 -0.015736
vn  -0.000000 0.000000 -0.015736
vn  -0.000000 0.000000 -0.015736
vn  -0.000000 0.000000 -0.015736
vn  -0.000000 0.000000 -0.015736
vn  0.000000 0.000000 -0.015736
vn  -0.000000 0.000000 -0.015736
vn  -0.000000 0.000000 -0.015736
vn  -0.000000 0.000000 -0.015736
vn  0.000000 0.000000 -0.015736
vn  0.000000 0.000000 -0.015736
vn  0.000000 0.000000 -0.015736
vn  -0.000000 0.000000 -0.015736
vn  0.000000 0.000000 -0.015736
vn  0.000000 0.000000 -0.015736
vn  -0.000000 0.000000 -0.015736
vn  0.000000 0.000000 -0.015736
vn  -0.000000 0.000000 -0.015736
vn  0.000000 0.000000 -0.015736
vn  -0.000000 0.000000 -0.015736
vn  -0.000000 0.000000 -0.015736
vn  0.000000 0.000000 -0.015736
vn  -0.000000 0.000000 -0.015736
vn  0.000000 0.000000 -0.015736
# 65 vertex normals

g Object06
s 1
f 1/1/1 2/2/2 3/3/3
f 4/4/4 5/5/5 6/6/6
f 4/4/4 7/7/7 8/8/8
f 9/9/9 10/10/10 4/4/4
f 11/11/11 12/12/12 4/4/4
f 13/13/13 14/14/14 4/4/4
f 4/4/4 6/6/6 15/15/15
f 16/16/16 17/17/17 5/5/5
f 18/18/18 19/19/19 5/5/5
f 20/20/20 21/21/21 22/22/22
f 23/23/23 24/24/24 20/20/20
f 20/20/20 25/25/25 26/26/26
f 20/20/20 27/27/27 28/28/28
f 29/29/29 30/30/30 1/1/1
f 31/31/31 32/32/32 20/20/20
f 33/33/33 34/34/34 1/1/1
f 35/35/35 1/1/1 36/36/36
f 35/35/35 2/2/2 1/1/1
f 1/1/1 37/37/37 36/36/36
f 38/38/38 39/39/39 4/4/4
f 40/40/40 4/4/4 41/41/41
f 40/40/40 42/42/42 43/43/43
f 40/40/40 41/41/41 44/44/44
f 40/40/40 45/45/45 46/46/46
f 47/47/47 5/5/5 20/20/20
f 20/20/20 1/1/1 31/31/31
f 46/46/46 48/48/48 40/40/40
f 49/49/49 42/42/42 40/40/40
f 50/50/50 51/51/51 4/4/4
f 8/8/8 38/38/38 4/4/4
f 44/44/44 49/49/49 40/40/40
f 14/14/14 7/7/7 4/4/4
f 52/52/52 53/53/53 4/4/4
f 54/54/54 55/55/55 4/4/4
f 56/56/56 57/57/57 4/4/4
f 15/15/15 58/58/58 4/4/4
f 59/59/59 6/6/6 5/5/5
f 5/5/5 19/19/19 59/59/59
f 17/17/17 18/18/18 5/5/5
f 5/5/5 47/47/47 16/16/16
f 22/22/22 47/47/47 20/20/20
f 24/24/24 21/21/21 20/20/20
f 26/26/26 23/23/23 20/20/20
f 28/28/28 25/25/25 20/20/20
f 32/32/32 27/27/27 20/20/20
f 60/60/60 31/31/31 1/1/1
f 30/30/30 61/61/61 1/1/1
f 62/62/62 29/29/29 1/1/1
f 34/34/34 62/62/62 1/1/1
f 63/63/63 33/33/33 1/1/1
f 3/3/3 63/63/63 1/1/1
f 43/43/43 64/64/64 40/40/40
f 40/40/40 64/64/64 65/65/65
f 51/51/51 41/41/41 4/4/4
f 39/39/39 50/50/50 4/4/4
f 53/53/53 13/13/13 4/4/4
f 55/55/55 52/52/52 4/4/4
f 10/10/10 54/54/54 4/4/4
f 57/57/57 9/9/9 4/4/4
f 12/12/12 56/56/56 4/4/4
f 58/58/58 11/11/11 4/4/4
f 61/61/61 60/60/60 1/1/1
f 65/65/65 45/45/45 40/40/40
# 63 faces

g
