# Max2Obj Version 4.0 Mar 10th, 2001
#
# object Object01 to come ...
#
v  -214.018982 -159.757172 -0.000107
v  -229.875519 -165.513977 -0.000122
v  -251.281128 -161.640579 -0.000122
v  -262.209595 -163.709137 -0.000122
v  -179.183517 -128.803192 -0.000107
v  -230.191650 -123.032707 -0.000122
v  -125.446762 -112.755745 -0.000107
v  -144.680603 -111.497368 -0.000107
v  -162.275681 -117.249054 -0.000107
v  -103.807251 -88.317955 -0.000092
v  -91.991013 -52.713715 -0.000092
v  -80.349976 -15.710083 -0.000092
v  -44.313324 -0.609352 -0.000092
v  -51.655792 1.370201 -0.000092
v  -73.825073 -1.602394 -0.000092
v  -62.219788 6.667290 -0.000092
v  -42.075653 1.455254 -0.000092
v  -47.122498 4.758675 -0.000092
v  -50.419525 7.058922 -0.000092
v  -53.256470 10.049248 -0.000092
v  -39.360901 -0.305031 -0.000092
v  -41.002045 0.863251 -0.000092
v  -55.087250 12.158371 -0.000092
v  -56.997711 14.689621 -0.000092
v  -59.448395 17.328331 -0.000092
v  -63.893768 21.503075 -0.000092
v  -66.325775 23.611595 -0.000092
v  -69.417938 25.683098 -0.000092
v  -70.876556 26.117355 -0.000092
v  -72.103668 26.184441 -0.000092
v  -73.103622 25.967827 -0.000092
v  -73.718521 25.545311 -0.000092
v  -74.370270 24.832748 -0.000092
v  -75.031525 23.847977 -0.000092
v  -75.734589 22.700706 -0.000092
v  -78.276764 16.576157 -0.000107
v  -79.099640 14.114983 -0.000107
v  -79.836151 11.881973 -0.000107
v  -81.648132 5.852348 -0.000107
v  -83.795303 -1.343613 -0.000107
v  -84.832245 -4.442528 -0.000107
v  -88.386429 -14.834122 -0.000107
v  -92.563263 -28.324638 -0.000107
v  -93.435852 -31.196770 -0.000107
v  -84.357895 -28.549751 -0.000092
v  -96.773224 -41.815151 -0.000107
v  -103.713043 -55.305664 -0.000107
v  -111.404938 -67.647278 -0.000107
v  -113.714218 -69.900009 -0.000107
v  -116.098236 -70.598137 -0.000107
v  -123.881851 -70.158432 -0.000107
v  -127.627899 -70.321846 -0.000107
v  -132.162201 -71.138031 -0.000107
v  -139.055786 -73.386047 -0.000107
v  -162.117020 -85.690689 -0.000107
v  -168.179077 -89.941772 -0.000107
v  -174.393875 -95.641479 -0.000107
v  -178.404572 -100.000671 -0.000107
v  -184.788330 -105.747704 -0.000107
v  -190.969101 -109.267708 -0.000107
v  -195.398315 -110.823082 -0.000107
v  -214.493271 -117.787163 -0.000107
v  -234.234497 -123.747841 -0.000122
v  -240.068268 -122.758217 -0.000122
v  -246.379547 -121.687584 -0.000122
v  -251.244797 -121.615532 -0.000122
v  -254.475555 -122.424171 -0.000122
v  -257.546997 -124.544487 -0.000122
v  -262.269989 -131.851166 -0.000122
v  -263.373291 -134.775635 -0.000122
v  -264.805786 -138.338623 -0.000122
v  -265.959290 -141.967529 -0.000122
v  -266.568054 -144.262085 -0.000122
v  -267.909302 -149.317535 -0.000122
v  -270.052124 -158.539520 -0.000122
v  -271.841064 -170.804901 -0.000122
v  -270.996277 -164.135147 -0.000122
v  -51.753662 8.360039 -0.000092
v  -68.008575 24.828026 -0.000092
v  -68.884369 5.878403 -0.000092
v  -76.657471 21.006683 -0.000092
v  -77.367035 19.222153 -0.000107
v  -234.234497 -123.747841 -0.000122
v  -201.494675 -149.844238 -0.000107
v  -152.951294 -80.231033 -0.000107
v  -111.609222 -104.963448 -0.000107
v  -117.205811 -112.860977 -0.000107
v  -270.836487 -171.415985 -0.000122
v  -58.149689 16.010750 -0.000092
v  -49.202850 6.089584 -0.000092
v  -58.138885 5.573914 -0.000092
v  -260.172241 -127.959114 -0.000122
v  -171.477600 -92.477097 -0.000107
# 93 vertices

vt  0.756649 0.230111 0.000000
vt  0.818723 0.205090 0.000000
vt  0.904133 0.217484 0.000000
vt  0.947178 0.207769 0.000000
vt  0.980317 0.176017 0.000000
vt  0.981958 0.204863 0.000000
vt  0.708363 0.271150 0.000000
vt  0.978990 0.227180 0.000000
vt  0.557372 0.405820 0.000000
vt  0.622812 0.357667 0.000000
vt  0.411968 0.428736 0.000000
vt  0.488404 0.431062 0.000000
vt  0.287629 0.671435 0.000000
vt  0.105801 0.884630 0.000000
vt  0.135188 0.891463 0.000000
vt  0.246596 0.819766 0.000000
vt  0.222678 0.876607 0.000000
vt  0.265928 0.863821 0.000000
vt  0.262246 0.876252 0.000000
vt  0.086207 0.886523 0.000000
vt  0.092876 0.890928 0.000000
vt  0.242846 0.948069 0.000000
vt  0.204124 0.906953 0.000000
vt  0.245767 0.938196 0.000000
vt  0.097215 0.893126 0.000000
vt  0.117683 0.905526 0.000000
vt  0.126115 0.910515 0.000000
vt  0.136544 0.919164 0.000000
vt  0.131074 0.914190 0.000000
vt  0.161476 0.907233 0.000000
vt  0.150288 0.933763 0.000000
vt  0.142736 0.925653 0.000000
vt  0.158213 0.943535 0.000000
vt  0.177808 0.911003 0.000000
vt  0.168296 0.953658 0.000000
vt  0.162963 0.948613 0.000000
vt  0.186500 0.969595 0.000000
vt  0.208981 0.985404 0.000000
vt  0.203275 0.982209 0.000000
vt  0.196434 0.977619 0.000000
vt  0.219700 0.987020 0.000000
vt  0.214825 0.986924 0.000000
vt  0.223634 0.986022 0.000000
vt  0.226014 0.984262 0.000000
vt  0.228500 0.981347 0.000000
vt  0.230985 0.977351 0.000000
vt  0.233614 0.972704 0.000000
vt  0.237039 0.965860 0.000000
vt  0.248379 0.929240 0.000000
vt  0.254729 0.905082 0.000000
vt  0.278581 0.822127 0.000000
vt  0.260709 0.768302 0.000000
vt  0.296337 0.756550 0.000000
vt  0.293275 0.768058 0.000000
vt  0.329551 0.528628 0.000000
vt  0.358181 0.461548 0.000000
vt  0.379278 0.429459 0.000000
vt  0.308099 0.713986 0.000000
vt  0.333748 0.659535 0.000000
vt  0.362538 0.609535 0.000000
vt  0.371382 0.600284 0.000000
vt  0.380738 0.597185 0.000000
vt  0.411661 0.597851 0.000000
vt  0.426491 0.596684 0.000000
vt  0.444357 0.592820 0.000000
vt  0.471379 0.582952 0.000000
vt  0.525526 0.553888 0.000000
vt  0.584560 0.513276 0.000000
vt  0.561113 0.530972 0.000000
vt  0.608413 0.489817 0.000000
vt  0.597288 0.502767 0.000000
vt  0.623712 0.471977 0.000000
vt  0.648228 0.448306 0.000000
vt  0.672247 0.433494 0.000000
vt  0.689593 0.426713 0.000000
vt  0.764341 0.396457 0.000000
vt  0.825859 0.373484 0.000000
vt  0.841790 0.370089 0.000000
vt  0.865057 0.373205 0.000000
vt  0.890230 0.376576 0.000000
vt  0.841790 0.370089 0.000000
vt  0.909531 0.376189 0.000000
vt  0.922229 0.372535 0.000000
vt  0.934114 0.363703 0.000000
vt  0.951828 0.334078 0.000000
vt  0.944050 0.349800 0.000000
vt  0.955798 0.322329 0.000000
vt  0.960985 0.308004 0.000000
vt  0.965056 0.293456 0.000000
vt  0.967152 0.284273 0.000000
vt  0.971770 0.264043 0.000000
vt  0.984385 0.178301 0.000000
vt  0.239605 0.958686 0.000000
# 93 texture vertices

vn  0.000000 -0.000000 -1.000000
vn  0.000000 0.000000 -1.000000
vn  0.000000 0.000000 -1.000000
vn  0.000000 0.000000 -1.000000
vn  0.000000 0.000000 -1.000000
vn  0.000001 -0.000000 -1.000000
vn  0.000000 0.000000 -1.000000
vn  0.000000 0.000000 -1.000000
vn  0.000000 0.000000 -1.000000
vn  0.000001 -0.000000 -1.000000
vn  0.000002 -0.000001 -1.000000
vn  0.000002 -0.000001 -1.000000
vn  0.000000 0.000000 -1.000000
vn  0.000000 0.000000 -1.000000
vn  0.000002 -0.000001 -1.000000
vn  0.000000 0.000000 -1.000000
vn  0.000000 0.000000 -1.000000
vn  0.000000 0.000000 -1.000000
vn  0.000000 0.000000 -1.000000
vn  0.000000 0.000000 -1.000000
vn  0.000000 0.000000 -1.000000
vn  0.000000 0.000000 -1.000000
vn  0.000000 0.000000 -1.000000
vn  0.000000 0.000000 -1.000000
vn  0.000000 0.000000 -1.000000
vn  0.000000 0.000000 -1.000000
vn  0.000000 0.000000 -1.000000
vn  0.000000 0.000000 -1.000000
vn  0.000000 0.000000 -1.000000
vn  0.000000 0.000000 -1.000000
vn  0.000000 0.000000 -1.000000
vn  0.000000 0.000000 -1.000000
vn  0.000000 0.000000 -1.000000
vn  0.000000 0.000000 -1.000000
vn  0.000000 0.000000 -1.000000
vn  0.000001 -0.000000 -1.000000
vn  0.000001 -0.000000 -1.000000
vn  0.000001 -0.000000 -1.000000
vn  0.000001 -0.000001 -1.000000
vn  0.000002 -0.000000 -1.000000
vn  0.000002 -0.000001 -1.000000
vn  0.000002 -0.000001 -1.000000
vn  0.000002 -0.000001 -1.000000
vn  0.000002 -0.000001 -1.000000
vn  0.000002 -0.000001 -1.000000
vn  0.000002 -0.000001 -1.000000
vn  0.000001 -0.000001 -1.000000
vn  0.000001 -0.000001 -1.000000
vn  0.000000 -0.000001 -1.000000
vn  0.000000 -0.000001 -1.000000
vn  0.000000 -0.000000 -1.000000
vn  0.000000 0.000000 -1.000000
vn  0.000000 0.000000 -1.000000
vn  0.000000 0.000000 -1.000000
vn  0.000000 0.000000 -1.000000
vn  0.000000 0.000000 -1.000000
vn  0.000000 0.000000 -1.000000
vn  0.000000 0.000000 -1.000000
vn  0.000000 0.000000 -1.000000
vn  0.000000 0.000000 -1.000000
vn  0.000000 0.000000 -1.000000
vn  0.000000 0.000000 -1.000000
vn  0.000000 -0.000000 -1.000000
vn  0.000000 0.000000 -1.000000
vn  0.000000 0.000000 -1.000000
vn  0.000000 0.000000 -1.000000
vn  0.000000 0.000000 -1.000000
vn  0.000000 0.000000 -1.000000
vn  0.000000 0.000000 -1.000000
vn  0.000000 0.000000 -1.000000
vn  0.000000 0.000000 -1.000000
vn  0.000000 0.000000 -1.000000
vn  0.000000 0.000000 -1.000000
vn  0.000000 0.000000 -1.000000
vn  0.000000 0.000000 -1.000000
vn  0.000000 0.000000 -1.000000
vn  0.000000 0.000000 -1.000000
vn  0.000000 0.000000 -1.000000
vn  0.000000 0.000000 -1.000000
vn  0.000001 0.000000 -1.000000
vn  0.000005 0.000002 -1.000000
vn  0.000005 0.000002 -1.000000
vn  0.000000 0.000000 -1.000000
vn  0.000000 0.000000 -1.000000
vn  0.000000 0.000000 -1.000000
vn  0.000001 0.000000 -1.000000
vn  0.000000 0.000000 -1.000000
vn  0.000000 0.000000 -1.000000
vn  0.000000 0.000000 -1.000000
vn  0.000000 0.000000 -1.000000
vn  0.000000 0.000000 -1.000000
vn  0.000000 0.000000 -1.000000
vn  0.000000 0.000000 -1.000000
# 93 vertex normals

g Object01
s 2
f 4/4/4 88/5/88 77/6/77
f 75/8/75 4/4/4 77/6/77
f 15/17/15 41/18/41 40/19/40
f 21/20/21 13/14/13 22/21/22
f 36/22/36 80/23/80 37/24/37
f 17/25/17 13/14/13 14/15/14
f 14/15/14 18/26/18 17/25/17
f 90/27/90 18/26/18 14/15/14
f 78/28/78 19/29/19 14/15/14
f 13/14/13 17/25/17 22/21/22
f 14/15/14 91/30/91 23/31/23
f 23/31/23 20/32/20 14/15/14
f 24/33/24 23/31/23 16/34/16
f 16/34/16 25/35/25 89/36/89
f 16/34/16 80/23/80 26/37/26
f 26/37/26 25/35/25 16/34/16
f 28/38/28 79/39/79 80/23/80
f 27/40/27 26/37/26 80/23/80
f 80/23/80 30/41/30 29/42/29
f 29/42/29 28/38/28 80/23/80
f 31/43/31 30/41/30 80/23/80
f 31/43/31 80/23/80 32/44/32
f 33/45/33 32/44/32 80/23/80
f 34/46/34 33/45/33 80/23/80
f 34/46/34 80/23/80 35/47/35
f 81/48/81 35/47/35 80/23/80
f 37/24/37 80/23/80 38/49/38
f 39/50/39 38/49/38 80/23/80
f 39/50/39 15/17/15 40/19/40
f 39/50/39 80/23/80 15/17/15
f 15/17/15 12/16/12 42/51/42
f 42/51/42 41/18/41 15/17/15
f 45/52/45 11/13/11 44/53/44
f 44/53/44 43/54/43 45/52/45
f 45/52/45 42/51/42 12/16/12
f 45/52/45 43/54/43 42/51/42
f 44/53/44 11/13/11 46/58/46
f 46/58/46 11/13/11 47/59/47
f 47/59/47 11/13/11 48/60/48
f 48/60/48 10/55/10 49/61/49
f 50/62/50 49/61/49 10/55/10
f 51/63/51 87/57/87 7/11/7
f 51/63/51 7/11/7 52/64/52
f 53/65/53 52/64/52 7/11/7
f 53/65/53 7/11/7 54/66/54
f 54/66/54 7/11/7 85/67/85
f 7/11/7 8/12/8 85/67/85
f 56/68/56 55/69/55 9/9/9
f 9/9/9 57/70/57 93/71/93
f 57/70/57 9/9/9 58/72/58
f 59/73/59 58/72/58 9/9/9
f 59/73/59 9/9/9 60/74/60
f 60/74/60 5/10/5 61/75/61
f 61/75/61 5/10/5 62/76/62
f 62/76/62 1/1/1 6/77/6
f 83/78/83 3/3/3 64/79/64
f 64/79/64 3/3/3 65/80/65
f 63/81/63 6/77/6 1/1/1
f 66/82/66 65/80/65 3/3/3
f 66/82/66 3/3/3 67/83/67
f 68/84/68 67/83/67 3/3/3
f 69/85/69 92/86/92 3/3/3
f 69/85/69 3/3/3 70/87/70
f 70/87/70 3/3/3 71/88/71
f 71/88/71 3/3/3 72/89/72
f 72/89/72 3/3/3 73/90/73
f 74/91/74 73/90/73 4/4/4
f 75/8/75 74/91/74 4/4/4
f 63/81/63 1/1/1 2/2/2
f 14/15/14 20/32/20 78/28/78
f 79/39/79 27/40/27 80/23/80
f 80/23/80 82/93/82 81/48/81
f 80/23/80 36/22/36 82/93/82
f 84/7/84 1/1/1 62/76/62
f 2/2/2 3/3/3 83/78/83
f 62/76/62 5/10/5 84/7/84
f 8/12/8 9/9/9 85/67/85
f 51/63/51 10/55/10 86/56/86
f 51/63/51 86/56/86 87/57/87
f 88/5/88 76/92/76 77/6/77
f 89/36/89 24/33/24 16/34/16
f 14/15/14 19/29/19 90/27/90
f 91/30/91 16/34/16 23/31/23
f 92/86/92 68/84/68 3/3/3
f 93/71/93 56/68/56 9/9/9
f 73/90/73 3/3/3 4/4/4
f 60/74/60 9/9/9 5/10/5
f 9/9/9 55/69/55 85/67/85
f 51/63/51 50/62/50 10/55/10
f 11/13/11 10/55/10 48/60/48
# 90 faces

g
